<!--?xml version="1.0" standalone="no"?-->
              <svg id="sw-js-blob-svg" viewBox="0 0 100 100" xmlns="http://www.w3.org/2000/svg" version="1.1">
                    <defs> 
                        <linearGradient id="sw-gradient" x1="0" x2="1" y1="1" y2="0">
                            <stop id="stop1" stop-color="rgba(201.723, 201.723, 201.723, 1)" offset="0%"></stop>
                            <stop id="stop2" stop-color="rgba(247.259, 245.284, 242.023, 1)" offset="100%"></stop>
                        </linearGradient>
                    </defs>
                <path fill="url(#sw-gradient)" d="M23.4,-27.4C31.3,-21.3,39.2,-14.8,39.9,-7.6C40.5,-0.3,33.9,7.7,27.8,14.1C21.8,20.4,16.3,25,9.3,29.1C2.4,33.1,-6.1,36.5,-12.2,34C-18.2,31.6,-21.9,23.2,-26,15.3C-30.1,7.5,-34.7,0.3,-34.8,-7.3C-34.8,-14.9,-30.4,-22.9,-23.9,-29.3C-17.3,-35.6,-8.7,-40.2,-0.4,-39.7C7.8,-39.2,15.6,-33.5,23.4,-27.4Z" width="100%" height="100%" transform="translate(50 50)" stroke-width="0" style="transition: all 0.3s ease 0s;" stroke="url(#sw-gradient)"></path>
              </svg>