<!--?xml version="1.0" standalone="no"?-->
              <svg id="sw-js-blob-svg" viewBox="0 0 100 100" xmlns="http://www.w3.org/2000/svg" version="1.1">
                    <defs> 
                        <linearGradient id="sw-gradient" x1="0" x2="1" y1="1" y2="0">
                            <stop id="stop1" stop-color="rgba(201.723, 201.723, 201.723, 1)" offset="0%"></stop>
                            <stop id="stop2" stop-color="rgba(247.259, 245.284, 242.023, 1)" offset="100%"></stop>
                        </linearGradient>
                    </defs>
                <path fill="url(#sw-gradient)" d="M19.1,-21.6C26,-16.9,33.8,-12.1,37.4,-4.7C40.9,2.7,40.1,12.7,35.7,20.9C31.3,29.2,23.3,35.6,14.9,36.9C6.5,38.2,-2.3,34.4,-10.2,30.5C-18.1,26.6,-25.1,22.5,-28.8,16.5C-32.5,10.4,-32.9,2.3,-32.2,-6.5C-31.6,-15.2,-30,-24.6,-24.5,-29.6C-19,-34.6,-9.5,-35.2,-1.7,-33.2C6.1,-31.1,12.1,-26.4,19.1,-21.6Z" width="100%" height="100%" transform="translate(50 50)" stroke-width="0" style="transition: all 0.3s ease 0s;" stroke="url(#sw-gradient)"></path>
              </svg>