<!--?xml version="1.0" standalone="no"?-->
              <svg id="sw-js-blob-svg" viewBox="0 0 100 100" xmlns="http://www.w3.org/2000/svg" version="1.1">
                    <defs> 
                        <linearGradient id="sw-gradient" x1="0" x2="1" y1="1" y2="0">
                            <stop id="stop1" stop-color="rgba(201.723, 201.723, 201.723, 1)" offset="0%"></stop>
                            <stop id="stop2" stop-color="rgba(247.259, 245.284, 242.023, 1)" offset="100%"></stop>
                        </linearGradient>
                    </defs>
                <path fill="url(#sw-gradient)" d="M25.5,-32C30.4,-26.2,30,-15.7,28.1,-7.8C26.1,0.2,22.6,5.6,18.9,9.8C15.2,14,11.2,17,6.1,20.5C1,23.9,-5.2,27.7,-10.6,26.8C-16,25.8,-20.4,20.1,-26.4,13.4C-32.3,6.8,-39.8,-0.8,-38.4,-6.5C-37.1,-12.2,-26.8,-16,-19,-21.3C-11.1,-26.6,-5.5,-33.5,2.4,-36.3C10.3,-39.1,20.5,-37.9,25.5,-32Z" width="100%" height="100%" transform="translate(50 50)" stroke-width="0" style="transition: all 0.3s ease 0s;" stroke="url(#sw-gradient)"></path>
              </svg>